# xmcd CD database file generated by Grip 3.3.1
# 
# Track frame offsets:
#       150
#       15800
#       31265
#       43320
#       46017
#       58280
#       78757
#       98300
#       102712
#       124854
#       147332
#       160467
#       171990
#       191509
#       209667
#       212530
# 
# Disc length: 3035 seconds
# 
# Revision: 2
# Processed by: cddbd v1.5.2PL0 Copyright (c) Steve Scherf et al.
# Submitted via: Grip 3.3.1
# 
DISCID=da0bd910
DTITLE=The Trailer Park Troubadours - Way Cool World
DYEAR=2003
DGENRE=Folk/Rock
TTITLE0=Trailer on the Bayou
TTITLE1=Way Cool World
TTITLE2=My Baby Whistles When She Walks
TTITLE3=Prelude to a Storm
TTITLE4=If the Trailer Ain't Level
TTITLE5=Primer Grey Impala
TTITLE6=Mobile
TTITLE7=Spit Cup
TTITLE8=Mom's Tattoo
TTITLE9=Custom-Made, Airbrushed License Plate
TTITLE10=Jailbird Beauty
TTITLE11=She's Better Lookin' When You're Lonely
TTITLE12=What Could I Be Doing?
TTITLE13=Inspector 372
TTITLE14=Flem's Lament
TTITLE15=Have You Never Been Mellow?
EXTD=Rugburn Records
EXTT0=
EXTT1=
EXTT2=
EXTT3=
EXTT4=
EXTT5=
EXTT6=
EXTT7=
EXTT8=
EXTT9=
EXTT10=
EXTT11=
EXTT12=
EXTT13=
EXTT14=
EXTT15=
PLAYORDER=
